<?xml version="1.0" encoding="utf-8"?>
<!-- Generator: Adobe Illustrator 22.0.0, SVG Export Plug-In . SVG Version: 6.00 Build 0)  -->
<svg version="1.1" xmlns="http://www.w3.org/2000/svg" xmlns:xlink="http://www.w3.org/1999/xlink" x="0px" y="0px"
	 viewBox="0 0 1024 1024" style="enable-background:new 0 0 1024 1024;" xml:space="preserve">
<style type="text/css">
	.st0{display:none;}
	.st1{display:inline;fill:none;}
	.st2{display:inline;fill:#680707;}
	.st3{display:inline;}
	.st4{display:inline;fill:#B99C74;stroke:#000000;stroke-width:0.25;stroke-miterlimit:10;}
	.st5{display:inline;fill:#B99C74;}
	.st6{display:inline;fill:#351F1A;}
	.st7{display:inline;fill:#80513E;}
	.st8{display:inline;fill:#522C22;}
	.st9{display:inline;fill:#2D1B13;}
	.st10{display:inline;fill:#C6AA7E;}
	.st11{display:inline;fill:#696B69;}
	.st12{display:inline;fill:#8C6847;}
	.st13{display:inline;fill:#382117;}
	.st14{display:inline;fill:#910A0A;stroke:#910A0A;stroke-miterlimit:10;}
	.st15{fill:#3F3D3A;}
	.st16{fill:#FDDD6C;}
	.st17{fill:#FBAD12;}
	.st18{fill:#FAF6C2;}
	.st19{fill:#1E1B1C;}
	.st20{display:inline;fill:#5B3727;}
	.st21{display:inline;fill:#5B372D;}
	.st22{fill:#766C42;stroke:#766C42;stroke-miterlimit:10;}
	.st23{fill:#A49E68;}
	.st24{display:inline;fill:#7E5130;}
	.st25{display:inline;fill:#D6B387;}
	.st26{display:inline;fill:#7A6348;}
	.st27{display:inline;fill:#BCA275;}
	.st28{display:inline;fill:#531C0C;}
	.st29{display:inline;fill:#B29F75;stroke:#000000;stroke-miterlimit:10;}
	.st30{display:inline;fill:#8E7F61;stroke:#000000;stroke-miterlimit:10;}
	.st31{fill:#412D1F;stroke:#000000;stroke-miterlimit:10;}
	.st32{fill:#705943;stroke:#000000;stroke-miterlimit:10;}
	.st33{fill:#978061;stroke:#000000;stroke-miterlimit:10;}
	.st34{fill:none;}
	.st35{fill:#FFFB00;stroke:#FF3FC6;stroke-miterlimit:10;}
	.st36{fill:#009404;}
	.st37{display:inline;fill:#FFFFFF;}
	.st38{display:inline;fill:#0004AA;}
	.st39{fill:#FF0000;stroke:#3200FF;stroke-width:0.75;stroke-miterlimit:10;}
	.st40{fill:#FF1800;stroke:#3200FF;stroke-width:0.75;stroke-miterlimit:10;}
	.st41{fill:#05003F;}
	.st42{fill:#FFFF00;}
	.st43{fill:#0E6A00;stroke:#FFFFFF;stroke-width:2;stroke-miterlimit:10;}
	.st44{fill:#0E6A00;}
	.st45{fill:#6EFFC7;}
	.st46{fill:#FFFFFF;stroke:#FFFFFF;stroke-miterlimit:10;}
	.st47{fill:#FFFFFF;stroke:#6EFFC7;stroke-width:3;stroke-miterlimit:10;}
</style>
<g id="fondo_x5F_puedes_ponerle_colorsito" class="st0">
</g>
<g id="cuerpa" class="st0">
</g>
<g id="hojas" class="st0">
</g>
<g id="banderin" class="st0">
</g>
<g id="detallitos" class="st0">
</g>
<g id="texto" class="st0">
</g>
<g id="Capa_7" class="st0">
</g>
<g id="Capa_8">
</g>
<g id="Capa_9">
</g>
<g id="Capa_10">
	<g>
		<rect x="317" y="1" class="st45" width="415" height="1024"/>
		
			<rect x="308.5" y="4.5" transform="matrix(6.123234e-17 -1 1 6.123234e-17 -0.5 1032.5)" class="st45" width="415" height="1024"/>
	</g>
	<g>
		<path class="st46" d="M530.7,211.4c-5.6-0.3-11.1,2.1-15,5.7c0.2,11.6,0.4,23.2,0.6,34.8c0.9,1.1,1.8,2.3,2.8,3.4
			c17.3,14.6,34.6,29.2,51.9,43.8l2.9-57.7c-3.4-1.3-6.7-2.8-9.7-4.5C545.7,226.2,543.7,211.9,530.7,211.4z"/>
		<path class="st46" d="M514.6,152.4c5.4-1.5,10.7-3.1,16.1-4.6c17.4-1.5,33.8,1.4,47.4,7.7l1.1-21.6c18.5-28.9-32.3-18.5-32.3-18.5
			c-0.6-1.3-5.7-13.1-18.5-16.2c-9-2.2-16.4,1.2-18.5,2.3c1.5,15.8,3.1,31.6,4.6,47.3C514.6,150.1,514.6,151.3,514.6,152.4z"/>
		<path class="st46" d="M558.4,571.6l1.7-45.1l2.2-60.4l1.9-50.4c21.9-11.5,2.3-25.4,2.3-25.4l1.9-38.3c-7.1-6.7-16-13.3-27.3-19.5
			c-8.8-4.8-16.6-9.6-23.6-14.5c0.6,32.2,1.1,64.3,1.7,96.5c-2.2-9.3-11.3-13.9-17.6-11.9c-6.6,2.2-11.3,12.1-6.6,21.1l19.6,50.8
			c0.7,12,1.4,24,2,36c1.1,19.5,2.2,39.1,3.3,58.6c0.5,9.2,1,18.5,1.6,27.7c0.1,10.8,0.2,21.7,0.4,32.5c8.4,7.1,20.8,13.8,37.8,25.2
			c1.2,0.8,2.5,1.7,3.8,2.6l0.8-40.7C605.8,557.7,558.4,571.6,558.4,571.6z"/>
		<path class="st46" d="M522.4,681.6c0.5,49.6,1.1,99.2,1.6,148.8c0.1,7.6,0.2,15.1,0.2,22.7c0.2,21.7,0.5,43.3,0.7,65
			c38.1-4.6,33.5-24.2,33.5-24.2l1.2-59.1l0.7-34.2l2.1-100.7c-7.8-4.8-17.5-9.4-29.4-13.9C529.3,684.5,525.7,683.1,522.4,681.6z"/>
	</g>
	<g>
		<path class="st47" d="M609.7,689.4c-17.7-14.2-33.2-24.8-44.7-32.1c-1.4-0.9-2.8-1.8-4.1-2.6c-18.4-11.5-31.8-18.1-40.9-25.2
			c-6.1-4.7-10.3-9.7-12.9-16.3c-5.3-13.5-1.2-27.1,2.5-35.8c2.8-2.8,5.6-5.5,8.3-8.1c-1.2-19.5-2.4-39.1-3.6-58.6
			c-22.6,19.9-37.8,32.6-47.6,55.3c-6.1,14.1-7.9,26.8-8.4,35.6c0,0-12.5,49.4,62.3,80c3.6,1.5,7.5,2.9,11.5,4.3
			c13,4.4,23.5,9.1,31.9,13.9c48.6,27.4,29.2,58.3,20.7,75.1c-3.9,7.6-13.1,17-22.9,25.7l-0.8,34.2c16.5-9.7,33.4-22.8,47.5-41.3
			c10.7-14.2,23.8-32,22.5-56.6C629.8,713.2,616.1,696.4,609.7,689.4z"/>
		<path class="st47" d="M458,860.3c-36.9,9.2-20.8,15-20.8,15c36.4-3.4,64.3-13.3,82.1-21.1c0.9-0.4,1.8-0.8,2.7-1.2
			c-0.1-7.6-0.2-15.1-0.2-22.7C510.2,838.1,485,853.5,458,860.3z"/>
		<path class="st47" d="M632.2,361.5c-15.6-39.9-48.7-57.8-57.7-62.4c0,0-0.1-0.1-0.1-0.1c-17.3-14.6-34.6-29.2-51.9-43.8
			c-1-1.1-2-2.2-2.8-3.4c-8-10.5-9.2-23.1-3.7-31.3c0.8-1.3,1.9-2.4,3.1-3.5c3.9-3.6,9.4-6,15-5.7c13,0.6,15,14.8,33.5,25.4
			c3,1.7,6.3,3.3,9.7,4.5c12.2,1.9,22.2-0.8,24.9-6.8c0.5-1.1,0.9-2.6,0.7-4.5c-6.2-9-7-11.2-6.5-11.6c1.1-1,8.4,8.4,16.2,6.9
			c2.2-0.4,3.8-1.6,4.6-2.3c1.5-8.7,2.6-23-4.2-37.4c-6.1-13-17.3-23.4-31.5-30c-13.6-6.3-30-9.2-47.4-7.7
			c-5.4,1.5-10.7,3.1-16.1,4.6c-5.4,1.5-10.8,3.1-16.2,4.6c-6.5,2.6-18.3,8.4-28.1,20.7c-17.9,22.6-14.3,49.2-13.5,54.3
			c0,0-1.9,42.9,60.7,86c7,4.8,14.9,9.7,23.6,14.5c11.3,6.2,20.2,12.7,27.3,19.5c47.2,45,9.7,98.3,9.7,98.3
			c-5.5,5.5-10.7,10.8-15.7,15.8l-2.2,60.4c2.2-2.4,4.4-4.7,6.4-6.9c49.9-53.4,61.1-66.4,66.9-89.2
			C645.2,396.8,634.9,368.5,632.2,361.5z M587.7,178.4c5.1,0,9.2,4.1,9.2,9.2c0,5.1-4.1,9.2-9.2,9.2c-5.1,0-9.2-4.1-9.2-9.2
			C578.5,182.6,582.6,178.4,587.7,178.4z"/>
	</g>
</g>
</svg>
